# xmcd CD database file
#
# Track frame offsets:
#	187
#	17975
#	35217
#	55542
#	73335
#	90270
#	107680
#	126062
#	144420
#	160410
#
# Disc length: 2385 seconds
#
# Revision: 0
# Processed by: cddbd v1.5.1PL0 Copyright (c) Steve Scherf et al.
# Submitted via: CDex 1.51
#
DISCID=86094f0a
DTITLE=HIDEMI ISHIKAWA - THE BEST HIDEMI 20　Disc2
DYEAR=1986
DGENRE=JPop
TTITLE0=夏のフォトグラフ
TTITLE1=熱風
TTITLE2=ミステリーウーマン
TTITLE3=もっと接近しましょ
TTITLE4=あなたとハプニング
TTITLE5=Sea Loves You 〜キッスで殺して〜
TTITLE6=愛の呪文
TTITLE7=サイレンの少年〜遠くで抱きしめて〜
TTITLE8=春霞恋絵巻
TTITLE9=ガラスの靴をありがとう
EXTD=YEAR: 1986
EXTT0=
EXTT1=
EXTT2=
EXTT3=
EXTT4=
EXTT5=
EXTT6=
EXTT7=
EXTT8=
EXTT9=
PLAYORDER=
